<svg width="88" height="32" viewBox="0 0 88 32" fill="none" xmlns="http://www.w3.org/2000/svg">
<path d="M7.851 19.4978H10.3601C10.1874 20.6703 9.66941 21.6114 8.80607 22.3213C7.95352 23.0313 6.86355 23.3862 5.53617 23.3862C3.7987 23.3862 2.43894 22.843 1.45689 21.7566C0.485629 20.6595 0 19.2128 0 17.4165C0 15.6202 0.491025 14.1788 1.47307 13.0924C2.45512 11.9953 3.80949 11.4467 5.53617 11.4467C6.7988 11.4467 7.851 11.7748 8.69276 12.4309C9.53451 13.0763 10.0525 13.9368 10.2468 15.0124H7.7215C7.45171 14.0659 6.72326 13.5926 5.53617 13.5926C4.54333 13.5926 3.78251 13.9529 3.25371 14.6736C2.73571 15.3835 2.47671 16.2978 2.47671 17.4165C2.47671 18.5351 2.73571 19.4548 3.25371 20.1755C3.78251 20.8854 4.54333 21.2403 5.53617 21.2403C6.1513 21.2403 6.65851 21.0897 7.05781 20.7886C7.46789 20.4766 7.73229 20.0464 7.851 19.4978Z" fill="#222222"/>
<path d="M22.012 11.6565V13.7701H18.4184V23.1765H16.0064V13.7701H12.4127V11.6565H22.012Z" fill="#222222"/>
<path d="M28.6894 16.8195H29.1427L31.587 11.6565H34.0313L28.4952 23.1765H26.0832L27.7343 19.7237L23.4608 11.6565H25.9861L28.6894 16.8195Z" fill="#222222"/>
<path d="M45.1637 21.0306H46.8149V26H44.4677V23.1765H36.8757V26H34.5285V21.0306H35.7263C36.6436 19.4064 37.1023 17.126 37.1023 14.1896V11.6565H45.1637V21.0306ZM42.8165 21.0306V13.8024H39.3362V14.8188C39.3362 17.5079 38.9477 19.5785 38.1707 21.0306H42.8165Z" fill="#222222"/>
<path d="M49.5559 11.6565H51.806V19.6914H52.2268L56.3871 11.6565H59.6408V23.1765H57.3745V14.964H56.9536L52.6963 23.1765H49.5559V11.6565Z" fill="#222222"/>
<path d="M64.3366 23.1765V11.6565H66.7485V16.158H69.4843L71.6048 11.6565H74.0977L71.5077 17.2551L74.2434 23.1765H71.7505L69.5004 18.3361H66.7485V23.1765H64.3366Z" fill="#222222"/>
<path d="M85.5557 23.1765L84.6168 20.0625H80.2137L79.2749 23.1765H76.8953L80.5699 11.6565H84.3092L88 23.1765H85.5557ZM82.0429 13.9637L80.8289 17.965H83.9693L82.7552 13.9637H82.0429Z" fill="#222222"/>
<path d="M38.1583 2H35.629L32.5938 8.05042H35.1231L38.1583 2Z" fill="#222222"/>
</svg>
